<?xml version="1.0" encoding="UTF-8"?>
<svg version="1.1" xmlns="http://www.w3.org/2000/svg" width="192" height="166">
<path d="M0 0 C63.36 0 126.72 0 192 0 C192 54.78 192 109.56 192 166 C128.64 166 65.28 166 0 166 C0 111.22 0 56.44 0 0 Z " fill="#FEFEFE" transform="translate(0,0)"/>
<path d="M0 0 C3.32819062 0.98613055 4.36711048 1.32318893 6.375 4 C6.71557617 6.26831055 6.71557617 6.26831055 6.66796875 8.88671875 C6.65830078 9.82451172 6.64863281 10.76230469 6.63867188 11.72851562 C6.61353516 12.70498047 6.58839844 13.68144531 6.5625 14.6875 C6.54219727 16.16959961 6.54219727 16.16959961 6.52148438 17.68164062 C6.48612203 20.12164231 6.43677033 22.56054719 6.375 25 C6.95797852 24.9263623 7.54095703 24.85272461 8.14160156 24.77685547 C23.52486619 22.93225586 23.52486619 22.93225586 29.5625 27.3125 C31.375 30 31.375 30 31.375 34 C32.695 34.66 34.015 35.32 35.375 36 C32.09145198 37.64177401 28.71871004 36.26642648 25.25 35.5625 C24.49589844 35.41490234 23.74179688 35.26730469 22.96484375 35.11523438 C21.10038843 34.74942352 19.23753286 34.37547644 17.375 34 C16.715 31.69 16.055 29.38 15.375 27 C13.395 27 11.415 27 9.375 27 C8.69698966 29.90073181 8.69698966 29.90073181 8.375 33 C10.77088962 35.39588962 11.58483116 35.32727153 14.875 35.59765625 C16.2053125 35.71657227 16.2053125 35.71657227 17.5625 35.83789062 C18.9546875 35.94907227 18.9546875 35.94907227 20.375 36.0625 C22.20862876 36.21657575 24.04198279 36.37396796 25.875 36.53515625 C26.6896875 36.600979 27.504375 36.66680176 28.34375 36.73461914 C30.375 37 30.375 37 32.375 38 C32.26115926 44.37508152 30.80877105 47.8682701 26.33203125 52.47265625 C24.375 54 24.375 54 20.9375 54.9375 C13.71570462 53.03702753 9.68628853 47.86627129 5.875 41.6875 C3.375 37.34574468 3.375 37.34574468 3.375 35 C0.09032056 33.90510685 -2.54645594 33.86063986 -6 33.75 C-13.17708333 33.27792874 -13.17708333 33.27792874 -15.9375 30.4375 C-16.494375 29.633125 -17.05125 28.82875 -17.625 28 C-17.295 27.05125 -16.965 26.1025 -16.625 25.125 C-15.43501625 21.08401352 -15.54517624 17.3164035 -15.75 13.13671875 C-15.625 11 -15.625 11 -13.625 9 C-12.12905667 13.67482292 -12.07700663 18.35601989 -13.625 23 C-11.975 23.33 -10.325 23.66 -8.625 24 C-8.68300781 22.68644531 -8.74101563 21.37289062 -8.80078125 20.01953125 C-8.84769048 18.28388977 -8.89318939 16.54820977 -8.9375 14.8125 C-9.0003418 13.51602539 -9.0003418 13.51602539 -9.06445312 12.19335938 C-9.15129853 7.66002944 -9.0974312 5.64144406 -6.33203125 1.88671875 C-3.625 0 -3.625 0 0 0 Z " fill="#FBFDFD" transform="translate(97.625,26)"/>
<path d="M0 0 C0.886875 0.804375 1.77375 1.60875 2.6875 2.4375 C5.38287032 4.7039159 7.42063478 5.68417366 11 6 C11 6.66 11 7.32 11 8 C11.66 8 12.32 8 13 8 C14.34919532 9.65385233 15.68133728 11.321702 17 13 C21.19474287 15.79649524 24.9215829 15.29008029 29.87109375 15.36328125 C33 16 33 16 35.23828125 18.28125 C35.81964844 19.1784375 36.40101562 20.075625 37 21 C37.73476562 22.07314453 37.73476562 22.07314453 38.484375 23.16796875 C38.90203125 23.83441406 39.3196875 24.50085938 39.75 25.1875 C40.17796875 25.86167969 40.6059375 26.53585938 41.046875 27.23046875 C42 29 42 29 42 31 C43.32 31.66 44.64 32.32 46 33 C45.34 33.66 44.68 34.32 44 35 C42.68 33.68 41.36 32.36 40 31 C39.96132812 31.90492187 39.96132812 31.90492187 39.921875 32.828125 C39.6528521 36.61890228 39.43643452 39.31177634 37.375 42.5625 C34.02280766 44.59145852 31.84748569 44.54964081 28 44 C25.796875 42.609375 25.796875 42.609375 24 40 C23.50752034 36.57088235 23.62418451 33.20508682 23.75 29.75 C23.76804687 28.81414062 23.78609375 27.87828125 23.8046875 26.9140625 C23.85174327 24.60832985 23.91746287 22.30469055 24 20 C23.41508789 20.02094727 22.83017578 20.04189453 22.22753906 20.06347656 C19.56853535 20.14680115 16.90980645 20.19870897 14.25 20.25 C12.86941406 20.30027344 12.86941406 20.30027344 11.4609375 20.3515625 C4.66851938 20.45000334 4.66851938 20.45000334 1.3828125 18.23828125 C-0.88592363 14.56600497 -0.40661448 12.26945203 0 8 C0.66 7.01 1.32 6.02 2 5 C0.68 3.68 -0.64 2.36 -2 1 C-1.34 0.67 -0.68 0.34 0 0 Z " fill="#FCFDFD" transform="translate(65,46)"/>
<path d="M0 0 C1.32 0.66 2.64 1.32 4 2 C4 2.99 4 3.98 4 5 C3.67 5.33 3.34 5.66 3 6 C2.36397253 11.11737979 2.36397253 11.11737979 4.22875977 15.59350586 C6.48294232 17.38349148 7.81175315 17.42075647 10.66796875 17.51171875 C11.56064453 17.54716797 12.45332031 17.58261719 13.37304688 17.61914062 C14.30181641 17.64169922 15.23058594 17.66425781 16.1875 17.6875 C17.12787109 17.72166016 18.06824219 17.75582031 19.03710938 17.79101562 C21.35795393 17.87348218 23.67842148 17.94263403 26 18 C26.01458252 18.59014893 26.02916504 19.18029785 26.04418945 19.78833008 C26.11868844 22.46371229 26.21533995 25.13784892 26.3125 27.8125 C26.33505859 28.74126953 26.35761719 29.67003906 26.38085938 30.62695312 C26.4340332 31.9659668 26.4340332 31.9659668 26.48828125 33.33203125 C26.51446533 34.15421143 26.54064941 34.9763916 26.56762695 35.82348633 C27.09784754 38.49255269 27.81630817 39.40545299 30 41 C34.59521617 41.5872225 34.59521617 41.5872225 38.67578125 39.80078125 C40.40981193 37.44270413 40.49911793 35.71358386 40.6875 32.8125 C40.75324219 31.91144531 40.81898437 31.01039062 40.88671875 30.08203125 C40.92410156 29.39496094 40.96148437 28.70789063 41 28 C46.7704918 31.96721311 46.7704918 31.96721311 47.75 36.375 C46.75344645 41.19167547 44.65270905 43.78978064 41 47 C37.33476058 49.10751267 34.19150546 49.51324557 30 49 C24.92942367 46.21615417 21.8342541 43.50276231 20 38 C19.93029948 35.60509014 19.91551997 33.20832309 19.9375 30.8125 C19.94652344 29.54019531 19.95554687 28.26789063 19.96484375 26.95703125 C19.97644531 25.98121094 19.98804687 25.00539063 20 24 C18.58847656 24.05220703 18.58847656 24.05220703 17.1484375 24.10546875 C15.90320313 24.13253906 14.65796875 24.15960938 13.375 24.1875 C11.53035156 24.23970703 11.53035156 24.23970703 9.6484375 24.29296875 C4.39321962 23.87097588 1.19336384 22.28757677 -2.375 18.4375 C-4.53682538 13.86440785 -4.86156544 9.97885411 -4 5 C-2 1.875 -2 1.875 0 0 Z " fill="#81C3BA" transform="translate(63,48)"/>
<path d="M0 0 C4.24076294 1.84380997 6.03231803 3.84724343 8 8 C8.20984775 10.85672736 8.28649823 13.47201222 8.1875 16.3125 C8.16719727 17.42334961 8.16719727 17.42334961 8.14648438 18.55664062 C8.11135979 20.37141075 8.05755972 22.18580288 8 24 C9.75376953 23.93039063 9.75376953 23.93039063 11.54296875 23.859375 C13.0911202 23.82184406 14.63929939 23.78544531 16.1875 23.75 C16.95642578 23.71648438 17.72535156 23.68296875 18.51757812 23.6484375 C22.49012707 23.58023923 24.48708287 23.67942679 27.9375 25.8359375 C31.32717488 29.39252819 32.91370632 32.44671383 33.1875 37.375 C33.0946875 38.674375 33.0946875 38.674375 33 40 C31 41 31 41 29.0625 40.5 C26.03693402 38.29958838 25.36423245 35.41058112 24 32 C20.89202011 30.44601005 17.54341964 30.62203416 14.125 30.4375 C13.40441406 30.39431641 12.68382813 30.35113281 11.94140625 30.30664062 C8.61937517 30.11392612 5.32879993 30 2 30 C1.98598145 29.06933716 1.98598145 29.06933716 1.97167969 28.11987305 C1.91799005 25.30827323 1.83434354 22.4983402 1.75 19.6875 C1.73582031 18.71103516 1.72164062 17.73457031 1.70703125 16.72851562 C1.67480469 15.79072266 1.64257812 14.85292969 1.609375 13.88671875 C1.58842773 13.02264404 1.56748047 12.15856934 1.54589844 11.26831055 C1.17487285 8.85976169 1.17487285 8.85976169 -0.81152344 7.18676758 C-4.12748677 5.38858621 -6.43986659 6.07700245 -10 7 C-12.05127844 10.07691766 -12.27260872 10.93644999 -12.4140625 14.44921875 C-12.45273438 15.29677734 -12.49140625 16.14433594 -12.53125 17.01757812 C-12.57765625 18.33918945 -12.57765625 18.33918945 -12.625 19.6875 C-12.66367188 20.58017578 -12.70234375 21.47285156 -12.7421875 22.39257812 C-12.83640218 24.5948462 -12.92201588 26.79710722 -13 29 C-14.98 29 -16.96 29 -19 29 C-18.835 28.484375 -18.67 27.96875 -18.5 27.4375 C-17.52505035 22.68462044 -17.96822599 18.12537013 -18.6875 13.375 C-19.04718965 10.30460574 -19.05477299 9.13693248 -17.875 6.1875 C-12.20328858 -0.42949666 -8.25408688 -1.60217978 0 0 Z " fill="#1895B0" transform="translate(102,21)"/>
<path d="M0 0 C3.52037367 0.50291052 6.22002177 1.80528035 9 4 C11.96331931 11.33774306 11.38659686 17.69104713 9 25 C11.28598176 27.82254472 12.39715928 28.91453982 16.05859375 29.43359375 C17.73115234 29.43552734 17.73115234 29.43552734 19.4375 29.4375 C25.65192006 29.77041536 25.65192006 29.77041536 28.9375 31.9375 C30.7180516 34.58134935 32.33077052 37.24970541 33.9375 40 C36.52848442 44.42846827 38.59976206 47.30597677 43 50 C46.5 51 46.5 51 50 50 C55.33179827 45.94929742 56.60236937 41.29918029 58 35 C57.34926514 34.95512451 56.69853027 34.91024902 56.02807617 34.86401367 C53.07999965 34.65270372 50.13394966 34.4203557 47.1875 34.1875 C46.16333984 34.11724609 45.13917969 34.04699219 44.08398438 33.97460938 C43.10107422 33.89404297 42.11816406 33.81347656 41.10546875 33.73046875 C39.74651489 33.62835083 39.74651489 33.62835083 38.36010742 33.52416992 C35.62808161 32.91739849 34.60735254 32.27548316 33 30 C33.43478261 24.56521739 33.43478261 24.56521739 35 23 C37.9375 22.8125 37.9375 22.8125 41 23 C43 25 43 25 43.125 28.125 C43.08375 29.07375 43.0425 30.0225 43 31 C43.88042969 31.03738281 44.76085937 31.07476562 45.66796875 31.11328125 C46.82941406 31.17902344 47.99085937 31.24476562 49.1875 31.3125 C50.33605469 31.37050781 51.48460937 31.42851563 52.66796875 31.48828125 C56.14680104 32.02254506 58.14531638 32.9947326 61 35 C60.7241774 41.48183112 58.25444981 46.1078809 54 51 C50.18933581 53.39874479 46.39670657 53.76715518 42 53 C36.10543624 50.56555752 33.32458338 45.80801857 30.359375 40.40234375 C29.91078125 39.60957031 29.4621875 38.81679687 29 38 C28.5771875 37.24589844 28.154375 36.49179688 27.71875 35.71484375 C26.05658766 33.71176116 26.05658766 33.71176116 23.109375 33.6015625 C22.00078125 33.60929687 20.8921875 33.61703125 19.75 33.625 C14.03600916 33.37601045 11.13308183 32.47255279 7.07421875 28.47265625 C6 27 6 27 6 25 C5.34 25 4.68 25 4 25 C4 24.34 4 23.68 4 23 C3.25234375 23.07347656 2.5046875 23.14695312 1.734375 23.22265625 C-1.7318874 22.94040345 -2.51838471 22.03940544 -4.75 19.4375 C-7.78849367 15.69068645 -9.09328685 12.94420279 -9 8 C-8.0625 5.0625 -8.0625 5.0625 -7 3 C-5.68 3 -4.36 3 -3 3 C-2.375 4.875 -2.375 4.875 -2 7 C-2.66 7.66 -3.32 8.32 -4 9 C-4.99 9 -5.98 9 -7 9 C-6.38003922 10.29409289 -5.75383647 11.58519673 -5.125 12.875 C-4.60292969 13.95394531 -4.60292969 13.95394531 -4.0703125 15.0546875 C-3.03442457 17.15135019 -3.03442457 17.15135019 -1 19 C2.5 19.33333333 2.5 19.33333333 6 19 C8.27014539 17.19886423 8.27014539 17.19886423 8.01171875 14.6875 C7.90472656 13.800625 7.79773438 12.91375 7.6875 12 C7.53861328 10.6696875 7.53861328 10.6696875 7.38671875 9.3125 C7.11328785 6.9819405 7.11328785 6.9819405 6 5 C4.02 5.33 2.04 5.66 0 6 C-0.38218767 4.34385343 -0.71395102 2.67542976 -1 1 C-0.67 0.67 -0.34 0.34 0 0 Z " fill="#8AC8BF" transform="translate(72,29)"/>
<path d="M0 0 C1.0725 0.37125 2.145 0.7425 3.25 1.125 C4.1575 1.41375 5.065 1.7025 6 2 C6.99 1.34 7.98 0.68 9 0 C15.33333333 -0.33333333 15.33333333 -0.33333333 18 1 C18 1.99 18 2.98 18 4 C15.36 4 12.72 4 10 4 C10 4.66 10 5.32 10 6 C14.455 7.98 14.455 7.98 19 10 C19.21620175 12.6664882 19.30894168 14.44004321 18 16.8125 C14.83908688 18.68929217 11.54131472 18.45254123 8 18 C6.66666667 17.33333333 5.33333333 16.66666667 4 16 C2.65753688 16.64808564 1.32567199 17.31822584 0 18 C-3.4375 18.4375 -3.4375 18.4375 -7 18 C-9.875 15.5625 -9.875 15.5625 -12 13 C-12.33 12.67 -12.66 12.34 -13 12 C-13.43784542 8.14696032 -13.30585252 6.45877878 -11.125 3.1875 C-7.53826502 -0.50472719 -5.0598824 -0.25299412 0 0 Z " fill="#F8FAFA" transform="translate(89,114)"/>
<path d="M0 0 C2.75329021 1.79562405 4.52627461 3.05254922 6 6 C6.43023798 9.87214182 6.31669086 11.52496371 4.125 14.8125 C1.40819426 17.60921179 0.60386898 17.94303123 -3.3125 18.3125 C-7.57536111 17.95124058 -9.01992054 16.98007946 -12 14 C-13.42662219 11.14675563 -13.31033868 9.16545451 -13 6 C-9.24647283 0.36970925 -6.73139654 -0.57045733 0 0 Z " fill="#3398B3" transform="translate(138,114)"/>
<path d="M0 0 C2.75329021 1.79562405 4.52627461 3.05254922 6 6 C6.43023798 9.87214182 6.31669086 11.52496371 4.125 14.8125 C1.40819426 17.60921179 0.60386898 17.94303123 -3.3125 18.3125 C-7.57536111 17.95124058 -9.01992054 16.98007946 -12 14 C-13.42662219 11.14675563 -13.31033868 9.16545451 -13 6 C-9.24647283 0.36970925 -6.73139654 -0.57045733 0 0 Z " fill="#3398B3" transform="translate(68,114)"/>
<path d="M0 0 C10.98214286 -0.66964286 10.98214286 -0.66964286 14.6875 2.0625 C17 5 17 5 17.625 8.5 C16.91563321 12.47245401 15.82768293 14.17231707 13 17 C9.14854957 18.92572521 4.19956748 18.04883218 0 18 C0 12.06 0 6.12 0 0 Z " fill="#0F90AF" transform="translate(36,114)"/>
<path d="M0 0 C0.66 0.33 1.32 0.66 2 1 C2 1.99 2 2.98 2 4 C-0.64 4 -3.28 4 -6 4 C-6 4.66 -6 5.32 -6 6 C-1.545 7.98 -1.545 7.98 3 10 C3.21620175 12.6664882 3.30894168 14.44004321 2 16.8125 C-1.28679183 18.76403265 -4.2213697 18.23991304 -8 18 C-8.66 17.67 -9.32 17.34 -10 17 C-10 16.01 -10 15.02 -10 14 C-7.03 14 -4.06 14 -1 14 C-1 13.34 -1 12.68 -1 12 C-5.455 10.02 -5.455 10.02 -10 8 C-10.1875 5.125 -10.1875 5.125 -10 2 C-6.33134759 -0.44576827 -4.32799657 -0.23607254 0 0 Z " fill="#2995B1" transform="translate(105,114)"/>
<path d="M0 0 C1.9375 1.0625 1.9375 1.0625 3 3 C2.66666667 9.33333333 2.66666667 9.33333333 0 12 C-4.05261287 12.34490322 -5.54754176 12.30163882 -9 10 C-9.3984375 8.125 -9.3984375 8.125 -9.375 6 C-9.38273438 5.29875 -9.39046875 4.5975 -9.3984375 3.875 C-8.40051164 -0.82112168 -3.84325308 -0.40033886 0 0 Z " fill="#F8F9F9" transform="translate(138,117)"/>
<path d="M0 0 C1.9375 1.0625 1.9375 1.0625 3 3 C2.66666667 9.33333333 2.66666667 9.33333333 0 12 C-4.05261287 12.34490322 -5.54754176 12.30163882 -9 10 C-9.3984375 8.125 -9.3984375 8.125 -9.375 6 C-9.38273437 5.29875 -9.39046875 4.5975 -9.3984375 3.875 C-8.40051164 -0.82112168 -3.84325308 -0.40033886 0 0 Z " fill="#F8F9F9" transform="translate(68,117)"/>
<path d="M0 0 C7.3028169 -0.35915493 7.3028169 -0.35915493 10.0625 1.0625 C11.58299975 4.20486615 10.78072633 6.69692708 10 10 C8 12 8 12 6.0546875 12.1953125 C4.03645833 12.13020833 2.01822917 12.06510417 0 12 C0 8.04 0 4.08 0 0 Z " fill="#F6FAF8" transform="translate(39,117)"/>
<path d="M0 0 C0.99 0.66 1.98 1.32 3 2 C2.67 2.99 2.34 3.98 2 5 C1.34 4.67 0.68 4.34 0 4 C-4.14503661 3.75212983 -4.14503661 3.75212983 -8 5 C-8 7.64 -8 10.28 -8 13 C-5.59454362 14.20272819 -4.05003047 14.10071472 -1.375 14.0625 C-0.55773437 14.05347656 0.25953125 14.04445312 1.1015625 14.03515625 C1.72804688 14.02355469 2.35453125 14.01195312 3 14 C2 17 2 17 0 18 C-3.3125 18.375 -3.3125 18.375 -7 18 C-9.875 15.5625 -9.875 15.5625 -12 13 C-12.33 12.67 -12.66 12.34 -13 12 C-13.43784542 8.14696032 -13.30585252 6.45877878 -11.125 3.1875 C-7.55693998 -0.48550296 -5.03139523 -0.26481028 0 0 Z " fill="#3498B3" transform="translate(89,114)"/>
<path d="M0 0 C1.32 0 2.64 0 4 0 C4 4.95 4 9.9 4 15 C6.97 15 9.94 15 13 15 C13 15.99 13 16.98 13 18 C8.71 18 4.42 18 0 18 C0 12.06 0 6.12 0 0 Z " fill="#309AB4" transform="translate(111,114)"/>
<path d="M0 0 C3.0625 0.1875 3.0625 0.1875 5.0625 2.1875 C5.1875 5.3125 5.1875 5.3125 5.0625 8.1875 C7.3725 8.5175 9.6825 8.8475 12.0625 9.1875 C12.0625 9.5175 12.0625 9.8475 12.0625 10.1875 C9.79225032 10.26847324 7.52117925 10.32667704 5.25 10.375 C3.35314453 10.42720703 3.35314453 10.42720703 1.41796875 10.48046875 C-1.9375 10.1875 -1.9375 10.1875 -3.90234375 8.87109375 C-4.9375 7.1875 -4.9375 7.1875 -4.6875 4.0625 C-3.68914628 0.23547742 -3.68914628 0.23547742 0 0 Z " fill="#82C4BB" transform="translate(109.9375,51.8125)"/>
<path d="M0 0 C4.95 0 9.9 0 15 0 C15 0.99 15 1.98 15 3 C13.02 3 11.04 3 9 3 C9 7.95 9 12.9 9 18 C8.01 18 7.02 18 6 18 C6 13.05 6 8.1 6 3 C4.02 3 2.04 3 0 3 C0 2.01 0 1.02 0 0 Z " fill="#2090AE" transform="translate(145,114)"/>
<path d="M0 0 C4.08449505 0.23564395 6.34214932 0.40962119 9.4375 3.1875 C11.30215998 6.54388796 11.6303761 8.2177434 11 12 C9 14.875 9 14.875 7 17 C6.01 16.67 5.02 16.34 4 16 C4.495 15.278125 4.99 14.55625 5.5 13.8125 C7.09315671 10.82533117 7.44864851 9.31999901 7 6 C4.23776722 3.23776722 1.79293383 3.42143709 -2 3 C-1.34 2.01 -0.68 1.02 0 0 Z " fill="#1892B1" transform="translate(133,114)"/>
<path d="M0 0 C4.08449505 0.23564395 6.34214932 0.40962119 9.4375 3.1875 C11.30215998 6.54388796 11.6303761 8.2177434 11 12 C9 14.875 9 14.875 7 17 C6.01 16.67 5.02 16.34 4 16 C4.495 15.278125 4.99 14.55625 5.5 13.8125 C7.09315671 10.82533117 7.44864851 9.31999901 7 6 C4.23776722 3.23776722 1.79293383 3.42143709 -2 3 C-1.34 2.01 -0.68 1.02 0 0 Z " fill="#1892B1" transform="translate(63,114)"/>
<path d="M0 0 C2.23288365 0.38497994 3.83656302 0.89493337 5.75 2.125 C7.76327172 5.14490758 7.42622232 7.46844367 7 11 C5.18391731 13.98356441 4.06169578 15.61660986 0.75 16.8125 C0.1725 16.874375 -0.405 16.93625 -1 17 C-1 16.34 -1 15.68 -1 15 C-2.98 15 -4.96 15 -7 15 C-7 14.67 -7 14.34 -7 14 C-3.97265625 13.75585938 -3.97265625 13.75585938 -0.9453125 13.51171875 C1.39519216 13.12606964 1.39519216 13.12606964 3 10 C3.41666667 7.5 3.41666667 7.5 3 5 C1.56249809 3.31201173 1.56249809 3.31201173 0 2 C0 1.34 0 0.68 0 0 Z " fill="#1C94B4" transform="translate(46,115)"/>
<path d="M0 0 C4.21531933 -0.81455446 9.07725215 -1.17819442 12.8359375 1.125 C14.1875 2.5 14.1875 2.5 16 5 C15.01 5.33 14.02 5.66 13 6 C12.34 5.34 11.68 4.68 11 4 C7.87803664 3.53513282 7.87803664 3.53513282 4.375 3.375 C3.18648438 3.30023438 1.99796875 3.22546875 0.7734375 3.1484375 C-0.14179687 3.09945312 -1.05703125 3.05046875 -2 3 C-1.34 2.01 -0.68 1.02 0 0 Z " fill="#9DD0C9" transform="translate(87,59)"/>
<path d="M0 0 C2.33214424 3.64397537 2.23164058 6.75325612 2 11 C1.67 11.99 1.34 12.98 1 14 C2.65 14.33 4.3 14.66 6 15 C6 15.33 6 15.66 6 16 C3.69 16 1.38 16 -1 16 C-1 14.68 -1 13.36 -1 12 C-1.01160156 11.17242187 -1.02320312 10.34484375 -1.03515625 9.4921875 C-1.04417969 8.62851562 -1.05320312 7.76484375 -1.0625 6.875 C-1.07410156 6.00617187 -1.08570312 5.13734375 -1.09765625 4.2421875 C-1 2 -1 2 0 0 Z " fill="#BEE1E6" transform="translate(83,35)"/>
<path d="M0 0 C1.32 0 2.64 0 4 0 C4.625 1.875 4.625 1.875 5 4 C2.64046906 6.35953094 1.22104383 6.49141413 -2 7 C-1.34 4.69 -0.68 2.38 0 0 Z " fill="#92CBC3" transform="translate(65,32)"/>
<path d="M0 0 C2.31 0.33 4.62 0.66 7 1 C7 2.32 7 3.64 7 5 C2.545 4.01 2.545 4.01 -2 3 C-1.34 2.01 -0.68 1.02 0 0 Z " fill="#1F94B2" transform="translate(84,114)"/>
<path d="M0 0 C1.98 1.65 3.96 3.3 6 5 C4.35 6.65 2.7 8.3 1 10 C1 8 1 6 1 4 C-0.43750191 2.31201173 -0.43750191 2.31201173 -2 1 C-1.34 0.67 -0.68 0.34 0 0 Z " fill="#E7F3F1" transform="translate(65,46)"/>
<path d="M0 0 C0.12375 0.928125 0.12375 0.928125 0.25 1.875 C0.81258459 4.18437567 0.81258459 4.18437567 3.0625 5.25 C3.701875 5.4975 4.34125 5.745 5 6 C1.99166904 7.50416548 -0.34961578 6.60839737 -3.625 6.0625 C-4.81351562 5.86785156 -6.00203125 5.67320313 -7.2265625 5.47265625 C-8.14179687 5.31667969 -9.05703125 5.16070312 -10 5 C-10 4.67 -10 4.34 -10 4 C-6.7 4 -3.4 4 0 4 C0 2.68 0 1.36 0 0 Z " fill="#D7ECED" transform="translate(128,56)"/>
<path d="M0 0 C1.32 0.33 2.64 0.66 4 1 C4 2.65 4 4.3 4 6 C2.02 6.99 2.02 6.99 0 8 C0.66 6.68 1.32 5.36 2 4 C1.34 3.67 0.68 3.34 0 3 C0 2.01 0 1.02 0 0 Z " fill="#1694B4" transform="translate(104,123)"/>
<path d="M0 0 C-0.33 0.99 -0.66 1.98 -1 3 C-2.98 3.33 -4.96 3.66 -7 4 C-7 3.34 -7 2.68 -7 2 C-4.35261084 0.5393715 -3.10551666 0 0 0 Z " fill="#1994B3" transform="translate(92,128)"/>
<path d="M0 0 C1.32 0.66 2.64 1.32 4 2 C3.625 3.9375 3.625 3.9375 3 6 C2.01 6.495 2.01 6.495 1 7 C1 5.35 1 3.7 1 2 C0.34 1.67 -0.32 1.34 -1 1 C-0.67 0.67 -0.34 0.34 0 0 Z " fill="#98CEC6" transform="translate(129,62)"/>
</svg>
